<?xml version="1.0" encoding="utf-8"?>
<!-- Generator: Adobe Illustrator 16.0.0, SVG Export Plug-In . SVG Version: 6.00 Build 0)  -->
<!DOCTYPE svg PUBLIC "-//W3C//DTD SVG 1.1//EN" "http://www.w3.org/Graphics/SVG/1.1/DTD/svg11.dtd">
<svg version="1.1" id="Layer_1" xmlns="http://www.w3.org/2000/svg" xmlns:xlink="http://www.w3.org/1999/xlink" x="0px" y="0px"
	 width="612px" height="792px" viewBox="0 0 612 792" enable-background="new 0 0 612 792" xml:space="preserve">
<g>
	<path fill-rule="evenodd" clip-rule="evenodd" fill="#FEFEFE" d="M40,397.957C40,284.304,40.02,170.652,39.905,57
		c-0.003-3.422,0.671-4.096,4.095-4.094c175.645,0.107,351.29,0.107,526.934,0c3.423-0.002,4.096,0.671,4.095,4.094
		c-0.104,227.305-0.104,454.609,0,681.915c0.001,3.422-0.67,4.097-4.095,4.095c-175.645-0.107-351.289-0.107-526.934,0
		c-3.423,0.002-4.098-0.671-4.095-4.095C40.02,625.262,40,511.609,40,397.957z"/>
	<path fill-rule="evenodd" clip-rule="evenodd" fill="#D1CFCF" d="M238.976,481.102c0-63.152,0-126.305-0.001-189.458
		c0-1.5-0.003-3-0.046-4.499c-0.062-2.174-1.631-2.15-3.188-2.158c-1.482-0.007-2.679,0.328-2.718,2.129
		c-0.033,1.499-0.045,2.999-0.045,4.498c-0.002,44.823-0.03,89.647,0.015,134.47c0.015,15.18-12.977,25.473-28.652,22.568
		c-7.971-1.477-12.413-7.165-16.8-13.009c-0.684-0.911-0.536-2.552-0.537-3.854c-0.023-57.153-0.278-114.311,0.31-171.458
		c0.073-7.065,4.695-14.051,8.418-20.582c7.338-12.873,18.125-22.099,31.412-27.987c6.311-2.796,13.2-4.857,20.489-4.835
		c39.491,0.115,78.983-0.04,118.473,0.109c12.646,0.048,23.762,5.11,33.746,12.447c11.787,8.662,19.352,20.24,24.629,34.025
		c2.077,5.427,2.392,10.344,2.403,15.562c0.111,52.488,0.067,104.977,0.067,157.465c0,12.355-7.868,21.332-20.178,22.326
		c-10.683,0.862-19.658-2.262-24.943-12.536c-1.413-2.746-1.9-5.561-1.898-8.614c0.039-44.99,0.027-89.98,0.027-134.971
		c0-1,0.104-2.013-0.022-2.997c-0.246-1.891,1.09-4.782-2.603-4.709c-3.314,0.066-2.156,2.69-2.352,4.46
		c-0.127,1.152-0.024,2.331-0.024,3.497c0,125.973-0.026,251.944,0.043,377.916c0.007,11.783-10.531,24.611-21.202,27.801
		c-17.059,5.099-32.602-2.092-39.853-17.809c-1.416-3.07-2.022-6.223-2.02-9.637c0.055-72.318,0.042-144.636,0.04-216.952
		c0-6.468-1.196-7.411-7.563-6.372c-1.605,0.263-2.427,0.842-2.413,2.487c0.013,1.5-0.023,3-0.023,4.499
		c-0.001,71.983-0.142,143.969,0.136,215.952c0.046,12.044-13.282,29.926-28.153,28.064c-6.147-0.769-12.553,1.489-18.498-1.983
		c-10.171-5.941-16.433-14.313-16.446-26.396C238.939,607.407,238.976,544.255,238.976,481.102z"/>
	<path fill-rule="evenodd" clip-rule="evenodd" fill="#D1CFCF" d="M308.145,198.2c-24.576-1.452-42.617-11.958-51.711-33.369
		c-7.194-16.938-4.658-33.992,7.219-49.239c7.449-9.563,17.334-14.896,28.074-19.29c1.02-0.418,2.292-0.288,3.447-0.295
		c4.826-0.028,9.667,0.231,14.477-0.055c18.519-1.102,31.453,8.135,42.359,21.913c6.74,8.516,9.699,18.788,9.366,28.614
		c-0.536,15.835-6.956,30-20.438,39.985C330.763,194.002,319.153,196.954,308.145,198.2z"/>
</g>
</svg>
